/* XPM */
static char * treectrl_file_xpm[] = {
"32 32 38 1",
" 	c None",
".	c #B6B6B6",
"+	c #AEAEAE",
"@	c #A6A6A6",
"#	c #9E9E9E",
"$	c #959595",
"%	c #8D8D8D",
"&	c #FFFFFF",
"*	c #F8F8FF",
"=	c #F0F0FF",
"-	c #E8E8FF",
";	c #E0E0FF",
">	c #D7D7FF",
",	c #858585",
"'	c #CFCFFF",
")	c #7D7D7D",
"!	c #C7C7FF",
"~	c #3B3B3B",
"{	c #BFBFFF",
"]	c #B6B6FF",
"^	c #747474",
"/	c #AEAEFF",
"(	c #A6A6FF",
"_	c #6C6C6C",
":	c #9E9EFF",
"<	c #9595FF",
"[	c #646464",
"}	c #8D8DFF",
"|	c #8585FF",
"1	c #5C5C5C",
"2	c #7D7DFF",
"3	c #7474FF",
"4	c #535353",
"5	c #6C6CFF",
"6	c #6464FF",
"7	c #4B4B4B",
"8	c #5C5CFF",
"9	c #434343",
"                                ",
"                                ",
"    ..+++@@@@####$$$$%%         ",
"    +&&&&&&&&&&**=---%%%        ",
"    +&&&&&&&&***=--;;%>,,       ",
"    +&&@@@####$$$%%;;,'',)      ",
"    +&&&&&&&*==--;;>>,'!!)      ",
"    @&&&&&**==--;;>>'~~~~~~     ",
"    @&&####$$$%%%%,''!{{{)~     ",
"    @&&&**==-;;;>>''!{{{])~     ",
"    #&&**==-;;;>>'!!!{{]]^~     ",
"    #&*#$$$%%%%,,,))))]//^~     ",
"    #**=--;;>>'''!{{{]//(_~     ",
"    #===-;;;>''!!{{]]//((_~     ",
"    $=-$%%%%,,,)))))^^((:_~     ",
"    $--;;>>''!!{{]]//(:::_~     ",
"    $-;;>>''!{{{]]//(::<<[~     ",
"    %;>>'!!!{]]]/((::<<}}[~     ",
"    %>>,,)))))^^^_::<}}}|1~     ",
"    ,'''!{{{]//((::<<}|||1~     ",
"    ,'!!{{]]//((:<<<}||221~     ",
"    ,!!))))^^^___[[[[12221~     ",
"    ,!{{]]//(:::<}}||22334~     ",
"    ){{]]//(::<<<}||223354~     ",
"    ){])^^^___[[[[11113554~     ",
"    )]]/((::<<}}|222355567~     ",
"    )///(::<}}}||223356667~     ",
"    ^/((::<<}|||2333566887~     ",
"    ^___[[[[11111444777799~     ",
"     ~~~~~~~~~~~~~~~~~~~~~~     ",
"                                ",
"                                "};
