/* XPM */
static char *treectrl_folder_open_xpm[] = {
"32 32 41 1",
" 	g None",
".	g #737373",
"+	g #6B6B6B",
"@	g #636363",
"#	g #DEDEFF",
"$	g #D6D6FF",
"%	g #CECEFF",
"&	g #C6C6FF",
"*	g #BDBDFF",
"=	g #5A5A5A",
"-	g #525252",
";	g #4A4A4A",
">	g #424242",
",	g #B5B5FF",
"'	g #ADADFF",
")	g #A5A5FF",
"!	g #9C9CFF",
"~	g #9494FF",
"{	g #8C8CFF",
"]	g #8484FF",
"^	g #7B7BFF",
"/	g #393939",
"(	g #000000",
"_	g #7373FF",
":	g #6B6BFF",
"<	g #313131",
"[	g #6363FF",
"}	g #292929",
"|	g #5A5AFF",
"1	g #5252FF",
"2	g #212121",
"3	g #4A4AFF",
"4	g #4242FF",
"5	g #181818",
"6	g #3939FF",
"7	g #3131FF",
"8	g #101010",
"9	g #2929FF",
"0	g #2121FF",
"a	g #1818FF",
"b	g #080808",
"                                ",
"                                ",
"                                ",
"    ...++++@                    ",
"   .##$$%%%@                    ",
"   .$$$%%&&@                    ",
"   +%%%&&**@=====----;;;;;>>>>  ",
"   +%%%&&**,,,'')))!!~~{{]]]^>  ",
"   +%&&&**,,'')))!!!~~{{]]]^^/( ",
"   @&&***,,'')))!!~~{{{]]]^^_/( ",
"   @&**,,'''))!!!~~{{]]]^^___/( ",
"   @**,,'')))!!~~~{{]]]^^__::<( ",
"@@@@====-----;;;;>>>>>>//_::[<( ",
"@**,,'''))!!!~~{{]]]^^___<([[<( ",
"@*,,'')))!!~~~{{]]]^^__::}([|}( ",
"=,,'')))!!~~{{]]]^^^__::[}(||}( ",
"='')))!!!~~{{]]]^^__:::[[}(11}( ",
"=-)))!!~~{{{]]^^^__::[[[||2(32( ",
" -)!!!~~{{]]]^^___::[[||112(32( ",
" -!!~~~{{]]]^^__:::[[||1132(42( ",
" -!~~{{{]]^^^__::[[|||11332(42( ",
" ;;~{{]]]^^___::[[||11133445(5( ",
"  ;{{]]]^^__::[[[||113344465(5( ",
"  >]]]^^^__::[[|||1133444665(5( ",
"  >]]^^__:::[[||113334446678(8( ",
"  >>^^__::[[[||11334446677798(( ",
"   >___::[[||1113344466779998(( ",
"   /_:::[[||11333446667799008(( ",
"   /::[[|||1133444667779900ab(( ",
"    <<<<}}}}}22222555588888bbb( ",
"     (((((((((((((((((((((((((( ",
"                                "};
