/* XPM */
static char *treectrl_folder_xpm[] = {
"32 32 42 1",
" 	g None",
".	g #737373",
"+	g #6B6B6B",
"@	g #636363",
"#	g #CECEFF",
"$	g #C6C6FF",
"%	g #BDBDFF",
"&	g #B5B5FF",
"*	g #5A5A5A",
"=	g #525252",
"-	g #4A4A4A",
";	g #424242",
">	g #000000",
",	g #ADADFF",
"'	g #A5A5FF",
")	g #9C9CFF",
"!	g #9494FF",
"~	g #8C8CFF",
"{	g #8484FF",
"]	g #7B7BFF",
"^	g #7373FF",
"/	g #6B6BFF",
"(	g #6363FF",
"_	g #393939",
":	g #5A5AFF",
"<	g #313131",
"[	g #5252FF",
"}	g #4A4AFF",
"|	g #4242FF",
"1	g #292929",
"2	g #3939FF",
"3	g #212121",
"4	g #3131FF",
"5	g #2929FF",
"6	g #2121FF",
"7	g #181818",
"8	g #1818FF",
"9	g #1010FF",
"0	g #101010",
"a	g #0808FF",
"b	g #0000FF",
"c	g #080808",
"                                ",
"                                ",
"                                ",
"    ...++++@                    ",
"   .##$$%%&@                    ",
"   .#$$%%&&@                    ",
"   +++++@@@@*****====-----;;;   ",
"   +>>>>>>>>>>>>>>>>>>>>>>>>>>  ",
"   +%&&,,''')))!!~~{{]]]^^//(_> ",
"   @&&,,'''))!!~~~{{]]^^^//((_> ",
"   @,,,'''))!!~~{{{]]^^//(((:_> ",
"   @,'''))!!!~~{{]]]^^//((:::<> ",
"   @'''))!!~~~{{]]^^///((::[[<> ",
"   *')))!!~~{{]]]^^//(((::[[}<> ",
"   *))!!!~~{{]]^^^//((::[[}}|1> ",
"   *)!!~~{{{]]^^///((::[[}}||1> ",
"   =!!~~{{]]]^^//((:::[}}}||21> ",
"   =~~~{{]]^^^//((::[[}}|||223> ",
"   =~{{{]]^^//(((::[[}}||22443> ",
"   -{{]]]^^//((:::[}}}||224453> ",
"   -{]]^^///((::[[}}||22244553> ",
"   -]]^^//(((::[[}}||224445567> ",
"   -^^^//((::[[}}|||2244556667> ",
"   ;^///((::[[}}||222445566887> ",
"   ;//((:::[}}}||2244555668890> ",
"   ;/((::[[}}|||22445566688990> ",
"   ;((::[[}}||2244455668889aa0> ",
"   _:::[}}}||2244555668899aab>> ",
"   _:[[}}||2224455668889aaabb>> ",
"    <<<<1111133333777700000cc>> ",
"     >>>>>>>>>>>>>>>>>>>>>>>>>> ",
"                                "};

